<svg xmlns="http://www.w3.org/2000/svg" xmlns:xlink="http://www.w3.org/1999/xlink" width="48" height="48" viewBox="0 0 48 48">
    <defs>
        <radialGradient id="b" cx="100%" cy="0%" r="141.421%" fx="100%" fy="0%">
            <stop offset="0%" stop-color="#FFF" stop-opacity=".382"/>
            <stop offset="100%" stop-color="#FFF" stop-opacity="0"/>
        </radialGradient>
        <path id="a" d="M14.77 0h18.46C41.389 0 48 6.612 48 14.77v18.46C48 41.389 41.388 48 33.23 48H14.77C6.611 48 0 41.388 0 33.23V14.77C0 6.611 6.612 0 14.77 0z"/>
    </defs>
    <g fill="none" fill-rule="evenodd">
        <g>
            <use fill="#FFF" xlink:href="#a"/>
            <use fill="url(#b)" xlink:href="#a"/>
        </g>
        <path d="M12 12h24v24H12z"/>
        <path fill="#8BC34A" d="M31.893 15.2h-4.699c-.5-1.3-1.7-2.2-3.098-2.2-1.5 0-2.7.9-3.099 2.2H16.2C15 15.2 14 16.198 14 17.398v15.594c0 1.2 1 2.2 2.2 2.2h15.594c1.2 0 2.2-1 2.2-2.2V17.5c.098-1.3-.902-2.3-2.101-2.3zm-7.797 0c.6 0 1.099.5 1.099 1.099s-.5 1.099-1.1 1.099c-.599 0-1.098-.5-1.098-1.1-.101-.599.399-1.099 1.099-1.099zm-1.583 14.516l-3.602-3.602 1.281-1.28 2.321 2.32 5.923-5.843 1.281 1.281-7.204 7.124z"/>
    </g>
</svg>
