<svg xmlns="http://www.w3.org/2000/svg" width="132" height="44" viewBox="0 0 132 44">
    <g fill="none" fill-rule="nonzero">
        <path fill="#A6A6A6" d="M121.148 0H10.488c-.403 0-.802 0-1.204.002-.337.002-.67.009-1.01.014-.74.009-1.476.074-2.205.195A7.332 7.332 0 0 0 3.978.9 7.082 7.082 0 0 0 .214 6.073a14.292 14.292 0 0 0-.197 2.202C.007 8.613.005 8.95 0 9.289v25.425c.005.342.006.673.017 1.015.008.738.074 1.474.197 2.202.12.729.353 1.435.687 2.094a6.829 6.829 0 0 0 1.296 1.776c.52.525 1.122.963 1.78 1.297a7.37 7.37 0 0 0 2.092.694 14.8 14.8 0 0 0 2.204.194c.34.008.674.012 1.01.012.403.002.802.002 1.205.002h110.66c.396 0 .797 0 1.193-.002.335 0 .679-.004 1.014-.012.737-.01 1.472-.074 2.2-.194a7.485 7.485 0 0 0 2.099-.694 6.905 6.905 0 0 0 1.779-1.297c.523-.52.962-1.12 1.3-1.776.332-.66.561-1.366.68-2.094.123-.728.191-1.464.205-2.202.004-.342.004-.673.004-1.015.008-.4.008-.797.008-1.203V10.49c0-.403 0-.803-.008-1.201 0-.338 0-.676-.004-1.013a14.858 14.858 0 0 0-.205-2.202 7.28 7.28 0 0 0-.68-2.094 7.113 7.113 0 0 0-3.08-3.08 7.444 7.444 0 0 0-2.098-.69 14.348 14.348 0 0 0-2.2-.194c-.335-.005-.68-.012-1.014-.014C121.945 0 121.544 0 121.148 0z"/>
        <path fill="#000" d="M9.29 43.038c-.336 0-.663-.005-.995-.012a13.956 13.956 0 0 1-2.056-.18 6.472 6.472 0 0 1-1.823-.602 5.946 5.946 0 0 1-1.537-1.119 5.853 5.853 0 0 1-1.122-1.536 6.294 6.294 0 0 1-.597-1.823 13.655 13.655 0 0 1-.184-2.062C.97 35.472.96 34.699.96 34.699V9.29s.01-.76.016-.984c.009-.69.07-1.379.183-2.06a6.331 6.331 0 0 1 .597-1.828 6.122 6.122 0 0 1 2.66-2.662 6.405 6.405 0 0 1 1.818-.599 13.844 13.844 0 0 1 2.063-.18L9.29.963h113.045l1.005.013c.685.009 1.368.068 2.044.18.64.108 1.259.311 1.838.602a6.153 6.153 0 0 1 2.656 2.662c.287.571.485 1.183.59 1.814.113.686.177 1.38.19 2.076.003.311.003.646.003.979.01.412.01.805.01 1.2v23.022c0 .4 0 .79-.01 1.183 0 .358 0 .685-.004 1.023a14.004 14.004 0 0 1-.188 2.039 6.313 6.313 0 0 1-.594 1.837 6.028 6.028 0 0 1-1.117 1.524c-.45.455-.97.835-1.54 1.125a6.448 6.448 0 0 1-1.834.604c-.68.111-1.367.171-2.056.18-.322.007-.66.011-.987.011l-1.193.003L9.29 43.038z"/>
        <path fill="#FFF" d="M56.482 23.482c2.528 0 4.194 1.998 4.194 5.085 0 3.095-1.657 5.083-4.156 5.083a3.376 3.376 0 0 1-3.134-1.742h-.047v4.932h-2.045V23.587h1.98v1.656h.037a3.533 3.533 0 0 1 3.17-1.76zm10.961 0c2.528 0 4.194 1.998 4.194 5.085 0 3.095-1.656 5.083-4.156 5.083a3.376 3.376 0 0 1-3.134-1.742H64.3v4.932h-2.044V23.587h1.978v1.656h.038a3.533 3.533 0 0 1 3.171-1.76zm14.676-3.824c2.887 0 4.865 1.619 4.932 3.976h-2.064c-.123-1.363-1.25-2.186-2.897-2.186-1.647 0-2.773.832-2.773 2.044 0 .966.72 1.534 2.48 1.969l1.505.37c2.803.662 3.967 1.788 3.967 3.786 0 2.556-2.036 4.156-5.273 4.156-3.03 0-5.075-1.563-5.207-4.033h2.093c.151 1.354 1.467 2.244 3.265 2.244 1.723 0 2.963-.89 2.963-2.111 0-1.06-.748-1.695-2.518-2.13l-1.77-.427c-2.509-.606-3.673-1.779-3.673-3.682 0-2.357 2.054-3.976 4.97-3.976zm33.83 3.806c2.755 0 4.488 1.893 4.488 4.913v.7h-7.034v.123a2.594 2.594 0 0 0 2.679 2.821 2.253 2.253 0 0 0 2.3-1.4h1.94c-.274 1.808-2.035 3.048-4.288 3.048-2.897 0-4.695-1.94-4.695-5.055 0-3.124 1.808-5.15 4.61-5.15zm-16.554 0c2.887 0 4.724 1.97 4.724 5.103 0 3.142-1.827 5.102-4.724 5.102-2.896 0-4.724-1.96-4.724-5.102 0-3.134 1.846-5.103 4.724-5.103zM91.68 21.23v2.357h1.894v1.618H91.68v5.49c0 .854.379 1.251 1.212 1.251.224-.004.449-.02.672-.047v1.61c-.374.069-.755.1-1.135.094-2.017 0-2.803-.758-2.803-2.69v-5.708h-1.448v-1.618h1.448V21.23h2.054zm-46.588-1.344l4.932 13.66h-2.243l-1.25-3.692h-5.206l-1.25 3.692H37.87l4.932-13.66h2.291zm65.104 3.596c.236 0 .47.025.7.077v1.912a2.858 2.858 0 0 0-.918-.124 2.06 2.06 0 0 0-2.13 2.292v5.907h-2.044v-9.96h1.95v1.696h.047a2.375 2.375 0 0 1 2.395-1.8zm-85.04-8.11l.29.018a5.572 5.572 0 0 1 4.391 2.373 5.444 5.444 0 0 0-2.592 4.568 5.26 5.26 0 0 0 3.21 4.839 12.058 12.058 0 0 1-1.67 3.402c-.983 1.471-2.015 2.91-3.652 2.936-1.59.036-2.125-.937-3.95-.937-1.842 0-2.412.91-3.937.973-1.56.058-2.751-1.57-3.77-3.028-2.039-2.978-3.625-8.39-1.498-12.074a5.847 5.847 0 0 1 4.92-3c1.56-.033 3.01 1.053 3.97 1.053.842 0 2.364-1.04 3.998-1.12l.29-.004zm74.238 9.777c-1.657 0-2.64 1.278-2.64 3.418 0 2.158.983 3.417 2.64 3.417 1.656 0 2.641-1.26 2.641-3.417 0-2.15-.985-3.418-2.641-3.418zm-32.491.076c-1.562 0-2.613 1.353-2.613 3.342 0 2.006 1.051 3.35 2.613 3.35 1.59 0 2.632-1.316 2.632-3.35 0-2.017-1.042-3.342-2.632-3.342zm-10.961 0c-1.562 0-2.613 1.353-2.613 3.342 0 2.006 1.05 3.35 2.613 3.35 1.59 0 2.631-1.316 2.631-3.35 0-2.017-1.042-3.342-2.631-3.342zm-11.985-3.067H43.9l-2.036 5.992h4.127l-2.034-5.992zm71.99 2.963a2.521 2.521 0 0 0-2.536 2.527h4.98a2.395 2.395 0 0 0-2.443-2.527zm-2.861-14.002c1.378 0 2.21.941 2.21 2.497v.34h-3.498v.056a1.31 1.31 0 0 0 1.319 1.419c.478.057.944-.18 1.178-.6h.941a2.01 2.01 0 0 1-2.146 1.432 2.25 2.25 0 0 1-2.288-2.557 2.285 2.285 0 0 1 2.284-2.587zm-63.665.352a2.347 2.347 0 0 1 1.099 2.218 2.347 2.347 0 1 1-4.672 0 2.347 2.347 0 0 1 3.573-2.218zm21.491 0a2.347 2.347 0 0 1 1.099 2.218 2.347 2.347 0 1 1-4.672 0 2.347 2.347 0 0 1 3.573-2.218zm19.813 0a2.347 2.347 0 0 1 1.099 2.218 2.347 2.347 0 1 1-4.672 0 2.347 2.347 0 0 1 3.573-2.218zm-15.47-.352c1.242 0 1.942.618 1.942 1.664v3.385h-.94v-.697h-.078c-.32.509-.888.806-1.488.778a1.496 1.496 0 0 1-1.651-1.482c0-.892.664-1.406 1.842-1.479l1.342-.077v-.428c0-.523-.346-.818-1.014-.818-.546 0-.924.2-1.032.55h-.947c.1-.85.9-1.396 2.024-1.396zm7.853-1.838v6.887h-.937v-.783h-.077a1.72 1.72 0 0 1-1.556.864c-1.26 0-2.056-.991-2.056-2.56 0-1.565.805-2.557 2.056-2.557.632-.029 1.224.31 1.519.87h.073V9.28h.978zm19.758.7v1.256h1.073v.823h-1.073v2.547c0 .52.213.746.7.746.125 0 .25-.008.373-.022v.814a3.207 3.207 0 0 1-.532.05c-1.087 0-1.52-.383-1.52-1.337V12.06h-.786v-.823h.786V9.98h.979zm-58.942.523c.598.632.882 1.498.772 2.361 0 2.097-1.133 3.303-3.088 3.303h-2.371V9.604h2.37a2.904 2.904 0 0 1 2.317.9zm19.106 1.124c.334.358.486.849.415 1.333v3.206h-.978v-2.96c0-.797-.346-1.192-1.069-1.192a1.136 1.136 0 0 0-1.183 1.255v2.898h-.977v-4.954h.94v.787h.074c.254-.58.848-.934 1.478-.882.488-.037.967.15 1.3.509zm2.95-2.347v6.887h-.978V9.28h.978zm30.948 2.347c.333.358.486.849.414 1.333v3.206h-.978v-2.96c0-.797-.345-1.192-1.068-1.192a1.136 1.136 0 0 0-1.183 1.255v2.898h-.978v-4.954h.941v.787h.073c.254-.58.848-.934 1.479-.882.488-.037.966.15 1.3.509zm9.315-2.347v2.73h.077c.267-.585.87-.94 1.51-.888a1.632 1.632 0 0 1 1.707 1.847v3.198h-.979V13.21c0-.791-.368-1.192-1.06-1.192a1.157 1.157 0 0 0-1.246 1.256v2.893h-.978V9.28h.969zm-54.026 1.933l.887 3.78h.073l1.019-3.78h.937l1.019 3.78h.077l.883-3.78h.978l-1.36 4.954h-1.014l-1.024-3.649h-.078l-1.019 3.649h-1.004l-1.366-4.954h.992zm24.007 2.715l-1.21.078c-.682.045-.991.277-.991.714 0 .446.387.705.918.705a1.168 1.168 0 0 0 1.283-1.082v-.415zm-28.039-1.942c-.85 0-1.327.628-1.327 1.702 0 1.082.478 1.705 1.327 1.705.847 0 1.33-.627 1.33-1.705 0-1.074-.483-1.702-1.33-1.702zm21.491 0c-.85 0-1.328.628-1.328 1.702 0 1.082.478 1.705 1.328 1.705.847 0 1.329-.627 1.329-1.705 0-1.074-.482-1.702-1.329-1.702zm19.813 0c-.85 0-1.327.628-1.327 1.702 0 1.082.478 1.705 1.328 1.705.846 0 1.328-.627 1.328-1.705 0-1.074-.482-1.702-1.329-1.702zm-8.674.023c-.823 0-1.323.637-1.323 1.679 0 1.05.495 1.683 1.323 1.683.824 0 1.333-.642 1.333-1.679 0-1.032-.514-1.683-1.333-1.683zm-39.321-1.478h-1.238v4.707h1.238a2.063 2.063 0 0 0 2.164-2.36 2.07 2.07 0 0 0-2.164-2.347zm-16.028-.94a5.36 5.36 0 0 1-1.226 3.84 4.509 4.509 0 0 1-3.56 1.683 5.1 5.1 0 0 1 1.258-3.697 5.453 5.453 0 0 1 3.528-1.826zm87.614 2.359a1.267 1.267 0 0 0-1.282 1.283h2.502a1.195 1.195 0 0 0-1.22-1.283z"/>
    </g>
</svg>
