<?xml version="1.0" encoding="UTF-8"?>
<svg width="175px" height="174px" viewBox="0 0 175 174" version="1.1" xmlns="http://www.w3.org/2000/svg" xmlns:xlink="http://www.w3.org/1999/xlink">
    <!-- Generator: Sketch 63.1 (92452) - https://sketch.com -->
    <title>Group 3</title>
    <desc>Created with Sketch.</desc>
    <g id="404" stroke="none" stroke-width="1" fill="none" fill-rule="evenodd">
        <g id="Диплинк_вэб" transform="translate(-709.000000, -160.000000)" fill-rule="nonzero">
            <g id="Group-3" transform="translate(709.469897, 160.000000)">
                <path d="M41.1250995,0 L133,0 C155.643675,-4.15957557e-15 174,18.3563253 174,41 L174,133 C174,155.643675 155.643675,174 133,174 L41.4053838,174 C18.8104736,174 0.474410657,155.719714 0.405574052,133.124909 L0.12528982,41.1249087 C0.0563046513,18.481339 18.3566212,0.0691754398 41.0001909,0.000190270963 C41.041827,6.34237279e-05 41.0834632,7.11307582e-15 41.1250995,0 Z" id="path-1" fill="#1E1E1E"></path>
                <path d="M87.5301028,17 C126.190035,17 157.530103,48.3400676 157.530103,87 C157.530103,125.659932 126.190035,157 87.5301028,157 C48.8701704,157 17.5301028,125.659932 17.5301028,87 C17.5301028,48.3400676 48.8701704,17 87.5301028,17 Z M87.5301028,24.706422 C53.1263097,24.706422 25.2365248,52.5962069 25.2365248,87 C25.2365248,121.403793 53.1263097,149.293578 87.5301028,149.293578 C121.933896,149.293578 149.823681,121.403793 149.823681,87 C149.823681,52.5962069 121.933896,24.706422 87.5301028,24.706422 Z" id="Oval" fill="#8DC641"></path>
                <path d="M83.3917686,107.045159 L83.3917686,113 L50.5301028,113 L50.5393951,112.830016 C50.8453111,107.233913 52.2832623,103.163201 54.9967329,99.7799482 C57.2284114,96.9974112 59.9308449,94.9182268 65.4686669,91.397812 C65.4526256,91.4080858 67.4285666,90.1514849 67.9982807,89.78153 C70.9793166,87.845736 72.8923959,86.3398954 74.4057873,84.5619777 C76.3035196,82.3325398 77.2953935,79.8866414 77.2953935,77.021492 C77.2953935,71.4600598 73.4147178,67.6069382 67.806184,67.6069382 C61.3018665,67.6069382 57.9542782,72.6289285 57.7782136,80.1729998 L57.7745437,80.330249 L51.9343073,80.330249 L51.9269425,80.1770335 L51.861455,78.8107077 C51.861455,68.718436 58.3451721,62 68.0837045,62 C77.6133032,62 83.8162117,67.8594538 83.8162117,76.8889577 C83.8162117,81.5017161 82.1876195,85.238594 79.0520452,88.5496991 C76.6884231,91.0456375 74.2849817,92.7412574 68.8020244,96.112034 C68.7290975,96.1564391 68.6541715,96.2019476 68.5764363,96.2490585 C68.3177344,96.4058426 67.1269762,97.122057 66.8017403,97.3194823 C64.1825552,98.9093863 62.5963186,100.025491 61.1953724,101.384331 C59.4743483,103.053628 58.3364993,104.884078 57.7896136,107.045159 L83.3917686,107.045159 Z M124.530103,94.8188522 L124.530103,100.74056 L117.706363,100.74056 L117.706363,113 L111.82221,113 L111.82221,100.74056 L89.9144142,100.74056 L89.9144142,94.3497102 L112.012098,62 L117.706363,62 L117.706363,94.8188522 L124.530103,94.8188522 Z M96.3136949,94.8022856 L111.82221,94.8022856 L111.82221,71.4520363 L96.3136949,94.8022856 Z" id="24_old" fill="#FFFFFF"></path>
            </g>
        </g>
    </g>
</svg>