<svg xmlns="http://www.w3.org/2000/svg" width="130" height="44" viewBox="0 0 130 44">
    <defs>
        <linearGradient id="a" x1="61.06%" x2="26.482%" y1="4.946%" y2="71.879%">
            <stop offset="0%" stop-color="#00A0FF"/>
            <stop offset="1%" stop-color="#00A1FF"/>
            <stop offset="26%" stop-color="#00BEFF"/>
            <stop offset="51%" stop-color="#00D2FF"/>
            <stop offset="76%" stop-color="#00DFFF"/>
            <stop offset="100%" stop-color="#00E3FF"/>
        </linearGradient>
        <linearGradient id="b" x1="107.685%" x2="-130.64%" y1="50%" y2="50%">
            <stop offset="0%" stop-color="#FFE000"/>
            <stop offset="41%" stop-color="#FFBD00"/>
            <stop offset="78%" stop-color="#FFA500"/>
            <stop offset="100%" stop-color="#FF9C00"/>
        </linearGradient>
        <linearGradient id="c" x1="86.271%" x2="-50.18%" y1="30.898%" y2="135.994%">
            <stop offset="0%" stop-color="#FF3A44"/>
            <stop offset="100%" stop-color="#C31162"/>
        </linearGradient>
        <linearGradient id="d" x1="-18.825%" x2="42.086%" y1="-11.828%" y2="35.099%">
            <stop offset="0%" stop-color="#32A071"/>
            <stop offset="7%" stop-color="#2DA771"/>
            <stop offset="48%" stop-color="#15CF74"/>
            <stop offset="80%" stop-color="#06E775"/>
            <stop offset="100%" stop-color="#00F076"/>
        </linearGradient>
    </defs>
    <g fill="none" fill-rule="nonzero">
        <path fill="#000" d="M5 0h120c2.761 0 5 2.237 5 4.997v33.977a4.998 4.998 0 0 1-5 4.997H5c-2.761 0-5-2.237-5-4.997V4.997A4.998 4.998 0 0 1 5 0z"/>
        <path fill="#A6A6A6" d="M129.235 4.78V39.19a4.015 4.015 0 0 1-4.014 4.015H4.779A4.015 4.015 0 0 1 .765 39.19V4.78A4.015 4.015 0 0 1 4.779.765h120.442a4.015 4.015 0 0 1 4.014 4.014zM125.221 0H4.779A4.78 4.78 0 0 0 0 4.78V39.19a4.78 4.78 0 0 0 4.78 4.78h120.44a4.78 4.78 0 0 0 4.78-4.78V4.78A4.78 4.78 0 0 0 125.22 0z"/>
        <path fill="#FFF" d="M73.9 26.478c.82-.009 1.603.34 2.143.956h.067v-.67h1.655v7.237c0 3.001-1.731 4.234-3.826 4.234a3.826 3.826 0 0 1-3.606-2.409l1.55-.64a2.257 2.257 0 0 0 2.056 1.443c1.34 0 2.171-.831 2.171-2.39v-.582h-.067a2.756 2.756 0 0 1-2.142.956 4.073 4.073 0 0 1-3.878-4.068 4.073 4.073 0 0 1 3.878-4.067zm40.232.287l2.124 5.18h.057l2.047-5.18h1.99l-4.898 11.27h-1.865l1.817-4.025-3.185-7.245h1.913zm-48.955-.24a4.01 4.01 0 0 1 4.085 4.063 4.073 4.073 0 0 1-4.065 4.082 4.073 4.073 0 0 1-4.085-4.063 4.073 4.073 0 0 1 4.065-4.081zm-8.914 0a4.01 4.01 0 0 1 4.084 4.063 4.073 4.073 0 0 1-4.065 4.082 4.073 4.073 0 0 1-4.085-4.063 4.073 4.073 0 0 1 4.066-4.081zm29.26 0a3.826 3.826 0 0 1 3.481 2.591l.201.42-5.442 2.247a2.057 2.057 0 0 0 1.97 1.233 2.306 2.306 0 0 0 2-1.118l1.386.956a4.047 4.047 0 0 1-7.422-2.266 3.822 3.822 0 0 1 3.826-4.062zm-40.115-4.497l.256.005a6.028 6.028 0 0 1 4.333 1.74l-1.214 1.214a4.44 4.44 0 0 0-3.138-1.233 4.59 4.59 0 0 0-4.591 4.588 4.59 4.59 0 0 0 4.591 4.588 4.23 4.23 0 0 0 3.195-1.262c.555-.594.892-1.36.957-2.17h-4.133v-1.72h5.816c.06.354.09.712.086 1.07a5.733 5.733 0 0 1-1.492 4.044 5.808 5.808 0 0 1-4.41 1.768 6.324 6.324 0 0 1-5.68-3.083 6.315 6.315 0 0 1 0-6.46 6.324 6.324 0 0 1 5.68-3.084zm62.815 4.453l.199.006.038.02c2.037 0 3.625 1.214 3.625 3.307v4.598h-1.722v-.956h-.057a2.535 2.535 0 0 1-2.276 1.166 2.766 2.766 0 0 1-2.975-2.629c0-1.74 1.74-2.695 3.443-2.695a4 4 0 0 1 1.865.459v-.115a1.72 1.72 0 0 0-1.913-1.54 1.703 1.703 0 0 0-1.635.87l-1.578-.659a3.339 3.339 0 0 1 3.185-1.825zm-27.397-4.018v11.949h-1.789V22.463h1.79zm16.557 0a3.716 3.716 0 1 1 0 7.418h-2.496v4.53h-1.789V22.464zm6.687 0v11.949h-1.78V22.463h1.78zm-38.165 5.835a2.469 2.469 0 0 0-2.707.617 2.465 2.465 0 0 0 1.98 4.14 2.354 2.354 0 0 0 2.295-2.467 2.466 2.466 0 0 0-1.568-2.29zm-8.914 0a2.469 2.469 0 0 0-2.707.617 2.465 2.465 0 0 0 1.979 4.14 2.354 2.354 0 0 0 2.295-2.467 2.466 2.466 0 0 0-1.567-2.29zm17.063-.166a2.467 2.467 0 0 0 0 4.922 2.277 2.277 0 0 0 2.18-2.466 2.284 2.284 0 0 0-2.18-2.456zm34.664 2.61c-.899 0-1.913.324-1.913 1.28 0 .717.813 1.013 1.397 1.013l.038.02a2.161 2.161 0 0 0 2.104-1.912 3.177 3.177 0 0 0-1.626-.402zm-22.984-2.65l-.144.001a2.239 2.239 0 0 0-2.133 2.38l3.634-1.51a1.569 1.569 0 0 0-1.501-.87zm11.688-3.966h-2.535V28.2h2.496l.039.019a2.047 2.047 0 0 0 1.772-3.069 2.047 2.047 0 0 0-1.772-1.023z"/>
        <path fill="#FFF" stroke="#FFF" stroke-width=".2" d="M42.288 9.559c.423 0 .826.078 1.21.246.384.167.689.383.925.659l-.522.52c-.393-.461-.925-.697-1.613-.697a2.23 2.23 0 0 0-1.614.658c-.453.433-.68 1.003-.68 1.702 0 .698.227 1.268.68 1.7a2.27 2.27 0 0 0 1.614.66c.659 0 1.21-.217 1.653-.66.285-.284.452-.688.492-1.199h-2.145v-.708h2.863c.02.148.04.295.04.433 0 .826-.247 1.485-.739 1.967-.55.58-1.279.875-2.164.875a2.979 2.979 0 0 1-2.175-.885c-.6-.59-.896-1.328-.896-2.193 0-.875.296-1.603.896-2.193.6-.59 1.318-.885 2.175-.885zm26.51 0c.855 0 1.574.295 2.164.895.58.6.876 1.327.876 2.183-.01.865-.295 1.593-.876 2.183-.58.6-1.299.895-2.165.895-.866 0-1.584-.295-2.165-.895-.58-.6-.866-1.328-.866-2.183 0-.856.286-1.593.866-2.183.58-.6 1.3-.895 2.165-.895zm-19.071.128v.727H47.04v1.869h2.421v.708h-2.42v1.868h2.686v.728h-3.444v-5.9h3.444zm4.841 0v.727h-1.653v5.173h-.748v-5.173h-1.653v-.727h4.054zm3.7 0v5.9h-.758v-5.9h.758zm5.009 0v.727h-1.653v5.173h-.748v-5.173h-1.653v-.727h4.054zm10.549 0l2.873 4.592h.03l-.03-1.14V9.686h.758v5.9h-.788l-3-4.809h-.03l.03 1.14v3.669H72.9v-5.9h.925zm-5.029.6c-.63 0-1.17.216-1.604.658-.433.443-.66 1.003-.66 1.692 0 .688.227 1.249.66 1.691.433.443.974.659 1.604.659.63 0 1.171-.216 1.604-.659.433-.442.66-1.003.66-1.691 0-.689-.217-1.25-.66-1.692-.433-.442-.974-.658-1.604-.658z"/>
        <path fill="url(#a)" d="M.644.39a1.91 1.91 0 0 0-.45 1.338v21.144c-.032.488.13.969.45 1.338l.067.077 11.85-11.844v-.286L.712.323.644.39z" transform="translate(9.565 9.559)"/>
        <path fill="url(#b)" d="M16.484 16.391l-3.922-3.948v-.286l3.922-3.948.086.057 4.696 2.657c1.34.756 1.34 1.998 0 2.763l-4.677 2.657-.105.048z" transform="translate(9.565 9.559)"/>
        <path fill="url(#c)" d="M16.598 16.334L12.562 12.3.644 24.21a1.55 1.55 0 0 0 1.98.067l13.974-7.943" transform="translate(9.565 9.559)"/>
        <path fill="url(#d)" d="M16.598 8.266L2.624.332A1.54 1.54 0 0 0 .644.39L12.562 12.3l4.036-4.034z" transform="translate(9.565 9.559)"/>
        <path fill="#000" d="M26.049 25.807l-13.86 7.886a1.589 1.589 0 0 1-1.913 0l-.067.067.067.076a1.589 1.589 0 0 0 1.913 0l13.975-7.943-.115-.086z" opacity=".2"/>
        <path fill="#000" d="M10.209 33.635a1.91 1.91 0 0 1-.421-1.348v.144c-.033.488.129.969.45 1.338l.066-.067-.095-.067zM30.831 23.101l-4.782 2.706.086.086 4.696-2.658a1.673 1.673 0 0 0 1.014-1.376 1.778 1.778 0 0 1-1.014 1.242z" opacity=".12"/>
        <path fill="#FFF" d="M12.189 10.025L30.83 20.616c.517.23.893.691 1.014 1.243a1.673 1.673 0 0 0-1.014-1.377L12.19 9.892c-1.33-.766-2.43-.135-2.43 1.395v.143c.029-1.53 1.1-2.16 2.43-1.405z" opacity=".25"/>
    </g>
</svg>
